<svg width="1e3" height="1e3" version="1.1" viewBox="0 0 1e3 1e3" xmlns="http://www.w3.org/2000/svg">
  <g stroke-linecap="round" stroke-linejoin="round">
    <path d="m799.095 386.687c-32.7241-3.15457-61.6674-9.70277-105.705-23.9154-32.7422-10.5671-67.8776-19.1842-95.9148-23.5239-24.4194-3.77947-79.8821-3.84556-99.7822-0.11924-19.1672 3.5895-38.7368 9.39832-58.2654 17.2946l-16.4962 6.67033-0.99094-15.6421c-0.54525-8.60312-0.77909-76.4701-0.52093-150.816l0.47-135.174 13.1495-5.32309c36.6713-14.8449 78.2323-26.3615 110.304-30.5654 45.4914-5.96291 80.249-0.762659 124.437 18.6178 52.563 23.0534 85.22 30.2707 138.089 30.5181 32.7462 0.153156 51.8392-1.92422 77.8809-8.47407 10.0767-2.53443 18.6206-4.30859 18.9865-3.94266 0.36581 0.365927 0.12734 14.1635-0.5302 30.6612l-1.19585 29.9959-16.7398 5.02487c-59.7285 17.9288-106.123 16.8887-170.445-3.82114-11.9102-3.8347-32.0986-11.6943-44.8634-17.4657-40.7835-18.4396-71.6721-26.2779-103.469-26.2563-28.8989 0.01852-46.5447 4.27725-81.789 19.7341l-19.7244 8.65041v88.8071c0 48.8439 0.5221 88.5386 1.16019 88.2106 39.2857-20.197 80.6479-23.1224 135.26-9.56629 20.3503 5.05149 36.3079 11.1119 64.8006 24.6101 41.107 19.4741 88.7771 33.9239 125.313 37.985 19.1388 2.12739 39.2234 0.15859 51.2754-5.02579l7.39639-3.18189v-41.7444c0-39.1326-0.16901-41.6774-2.70725-40.6748-9.05183 3.57572-28.6164 5.76274-44.4766 4.97195-25.0631-1.24968-37.4752-4.98237-88.1796-26.5181-52.2695-22.2003-112.186-29.5351-127.552-15.6143-2.15715 1.95432-2.34828-0.18176-1.90699-21.3121 0.55335-26.5132-0.0926-25.0904 14.1137-30.8126 7.32902-2.95083 11.461-3.45857 27.9388-3.43229 23.1932 0.0347 29.9555 1.70682 79.671 19.6752 18.719 6.76549 40.5624 13.6231 48.5412 15.2391 55.4116 11.2234 88.2947 9.86079 133.117-5.51616 6.31771-2.16734 12.1456-3.94062 12.9509-3.94062 1.51351 0 0.29636 155.65-1.41707 181.259l-0.89716 13.4085-12.6088 3.40867c-27.6348 7.47073-60.7751 10.3238-88.6773 7.6343z" fill="#ff6b2a" stroke="#ff6b2a" stroke-width="11.5764"/>
    <ellipse cx="132.054" cy="301.042" rx="61.107" ry="61.8805"/>
    <rect x="100.051" y="376.221" width="63.202" height="396.12" stroke="#000" stroke-width="10.9699"/>
    <rect x="180.27" y="448.426" width="169.684" height="45.6229" stroke="#000" stroke-width="10.3836"/>
    <ellipse cx="375.479" cy="471.213" rx="42.5428" ry="43.3163"/>
    <path d="m349.561 49.6317v376.368c12.4959-10.3785 38.7086-10.2807 50.4394 1.1e-4l1.23022-376.368z" stroke="#000" stroke-width="5.78821"/>
    <path d="m349.361 636.111v-119.569c16.3841 10.5833 36.4466 10.052 50.4394-1.2e-4l1.23023 119.569z" stroke="#000" stroke-width="5.78821"/>
    <text x="177.629" y="761.69" font-family="'Bauhaus 93'" font-size="155.188px" stroke="#000" stroke-width="3.47293">acker</text>
    <text x="608.218" y="496.73" fill="#ff6b2a" font-family="'Bauhaus 93'" font-size="155.188px" stroke="#ff6b2a" stroke-width="3.12563">ame</text>
    <text x="500" y="966.131" font-family="'Bauhaus 93'" font-size="237.29px" stroke="#000" stroke-width="6.946" text-align="center" text-anchor="middle">YEAR</text>
  </g>
</svg>
