<?xml version="1.0" encoding="UTF-8" standalone="no"?>
<svg
   xmlns:dc="http://purl.org/dc/elements/1.1/"
   xmlns:cc="http://creativecommons.org/ns#"
   xmlns:rdf="http://www.w3.org/1999/02/22-rdf-syntax-ns#"
   xmlns:svg="http://www.w3.org/2000/svg"
   xmlns="http://www.w3.org/2000/svg"
   width="1e3"
   height="1e3"
   version="1.1"
   viewBox="0 0 1e3 1e3"
   id="svg24">
  <metadata
     id="metadata30">
    <rdf:RDF>
      <cc:Work
         rdf:about="">
        <dc:format>image/svg+xml</dc:format>
        <dc:type
           rdf:resource="http://purl.org/dc/dcmitype/StillImage" />
      </cc:Work>
    </rdf:RDF>
  </metadata>
  <defs
     id="defs28" />
  <g
     stroke-linecap="round"
     stroke-linejoin="round"
     id="g22">
    <path
       d="m 799.095,386.687 c -32.7241,-3.15457 -61.6674,-9.70277 -105.705,-23.9154 -32.7422,-10.5671 -67.8776,-19.1842 -95.9148,-23.5239 -24.4194,-3.77947 -79.8821,-3.84556 -99.7822,-0.11924 -19.1672,3.5895 -38.7368,9.39832 -58.2654,17.2946 l -16.4962,6.67033 -0.99094,-15.6421 c -0.54525,-8.60312 -0.77909,-76.4701 -0.52093,-150.816 l 0.47,-135.174 13.1495,-5.32309 c 36.6713,-14.8449 78.2323,-26.3615 110.304,-30.5654 45.4914,-5.96291 80.249,-0.762659 124.437,18.6178 52.563,23.0534 85.22,30.2707 138.089,30.5181 32.7462,0.153156 51.8392,-1.92422 77.8809,-8.47407 10.0767,-2.53443 18.6206,-4.30859 18.9865,-3.94266 0.36581,0.365927 0.12734,14.1635 -0.5302,30.6612 l -1.19585,29.9959 -16.7398,5.02487 c -59.7285,17.9288 -106.123,16.8887 -170.445,-3.82114 -11.9102,-3.8347 -32.0986,-11.6943 -44.8634,-17.4657 -40.7835,-18.4396 -71.6721,-26.2779 -103.469,-26.2563 -28.8989,0.01852 -46.5447,4.27725 -81.789,19.7341 l -19.7244,8.65041 v 88.8071 c 0,48.8439 0.5221,88.5386 1.16019,88.2106 39.2857,-20.197 80.6479,-23.1224 135.26,-9.56629 20.3503,5.05149 36.3079,11.1119 64.8006,24.6101 41.107,19.4741 88.7771,33.9239 125.313,37.985 19.1388,2.12739 39.2234,0.15859 51.2754,-5.02579 l 7.39639,-3.18189 v -41.7444 c 0,-39.1326 -0.16901,-41.6774 -2.70725,-40.6748 -9.05183,3.57572 -28.6164,5.76274 -44.4766,4.97195 -25.0631,-1.24968 -37.4752,-4.98237 -88.1796,-26.5181 -52.2695,-22.2003 -112.186,-29.5351 -127.552,-15.6143 -2.15715,1.95432 -2.34828,-0.18176 -1.90699,-21.3121 0.55335,-26.5132 -0.0926,-25.0904 14.1137,-30.8126 7.32902,-2.95083 11.461,-3.45857 27.9388,-3.43229 23.1932,0.0347 29.9555,1.70682 79.671,19.6752 18.719,6.76549 40.5624,13.6231 48.5412,15.2391 55.4116,11.2234 88.2947,9.86079 133.117,-5.51616 6.31771,-2.16734 12.1456,-3.94062 12.9509,-3.94062 1.51351,0 0.29636,155.65 -1.41707,181.259 l -0.89716,13.4085 -12.6088,3.40867 c -27.6348,7.47073 -60.7751,10.3238 -88.6773,7.6343 z"
       fill="#ff6b2a"
       stroke="#ff6b2a"
       stroke-width="11.5764"
       id="path2" />
    <path
       id="ellipse4"
       d="m 193.161,301.04199 a 61.106998,61.880501 0 0 1 -61.107,61.8805 61.106998,61.880501 0 0 1 -61.106998,-61.8805 61.106998,61.880501 0 0 1 61.106998,-61.8805 61.106998,61.880501 0 0 1 61.107,61.8805 z" />
    <path
       id="rect6"
       style="stroke:#000000;stroke-width:10.9699"
       d="m 100.051,376.22101 h 63.202 V 772.341 h -63.202 z" />
    <path
       id="rect8"
       style="stroke:#000000;stroke-width:10.3836"
       d="m 180.27,448.42599 h 169.68401 v 45.6229 H 180.27 Z" />
    <path
       id="ellipse10"
       d="m 418.0218,471.21301 a 42.542801,43.316299 0 0 1 -42.5428,43.3163 42.542801,43.316299 0 0 1 -42.5428,-43.3163 42.542801,43.316299 0 0 1 42.5428,-43.3163 42.542801,43.316299 0 0 1 42.5428,43.3163 z" />
    <path
       d="m 349.561,49.6317 v 376.368 c 12.4959,-10.3785 38.7086,-10.2807 50.4394,1.1e-4 l 1.23022,-376.368 z"
       stroke="#000000"
       stroke-width="5.78821"
       id="path12" />
    <path
       d="M 349.361,636.111 V 516.542 c 16.3841,10.5833 36.4466,10.052 50.4394,-1.2e-4 l 1.23023,119.569 z"
       stroke="#000000"
       stroke-width="5.78821"
       id="path14" />
    <g
       aria-label="acker"
       id="text16"
       style="font-size:155.188px;font-family:'Bauhaus 93';stroke:#000000;stroke-width:3.47293">
      <path
         d="m 227.86808,733.35001 v 29.32507 q -3.48567,0.60621 -6.36513,0.60621 -17.04946,0 -28.41577,-11.21476 -11.36631,-11.21476 -11.36631,-28.11267 0,-16.44326 11.44208,-27.88535 11.51786,-11.44208 27.96112,-11.44208 18.33765,0 28.87043,10.7601 10.60855,10.68433 10.60855,29.24931 V 761.69 h -28.33999 v -35.00823 q 0,-5.98625 -2.95524,-9.5477 -2.87947,-3.56144 -7.80487,-3.56144 -4.47075,0 -7.72909,3.25834 -3.25834,3.25834 -3.25834,7.72909 0,4.69807 2.95524,7.72909 2.95524,3.03102 7.50176,3.03102 3.713,0 6.89556,-1.97016 z"
         style="font-size:155.188px;font-family:'Bauhaus 93';stroke:#000000;stroke-width:3.47293"
         id="path36" />
      <path
         d="m 323.49663,726.9091 28.11267,-1.06086 q -1.21241,16.36749 -12.19984,26.90027 -10.98743,10.53278 -26.74871,10.53278 -16.67059,0 -28.18845,-11.59364 -11.44208,-11.59363 -11.44208,-28.41577 0,-15.98861 11.59363,-27.35492 11.59364,-11.36631 27.80957,-11.36631 14.17,0 25.00588,8.9415 10.83588,8.9415 13.48802,22.80839 l -28.71887,1.06086 q -3.713,-4.84963 -9.39615,-4.84963 -4.84963,0 -7.95642,3.18257 -3.10679,3.18257 -3.10679,8.03219 0,4.9254 3.25834,8.25952 3.33412,3.33412 8.25952,3.33412 7.19866,0 10.22968,-8.41107 z"
         style="font-size:155.188px;font-family:'Bauhaus 93';stroke:#000000;stroke-width:3.47293"
         id="path38" />
      <path
         d="M 392.30069,658.25659 V 761.69 h -28.34 V 658.25659 Z m 43.4193,27.88535 -13.8669,27.50646 20.61091,48.0416 h -31.37102 l -17.73144,-49.32978 12.88182,-26.21828 z"
         style="font-size:155.188px;font-family:'Bauhaus 93';stroke:#000000;stroke-width:3.47293"
         id="path40" />
      <path
         d="m 521.87661,728.50038 h -42.96465 q -0.98508,-3.25834 -0.98508,-5.98626 0,-3.78877 1.36396,-7.42598 h 14.39732 q -1.5155,-8.41107 -9.47192,-8.41107 -5.30428,0 -8.63839,4.54652 -3.33412,4.47075 -3.33412,11.51786 0,7.35021 3.18257,11.89674 3.25834,4.54652 8.48684,4.54652 4.24342,0 8.18374,-4.24342 l 16.14016,19.3985 q -11.29053,8.86572 -25.08165,8.86572 -16.82214,0 -28.26423,-11.29053 -11.44208,-11.29054 -11.44208,-27.96112 0,-16.59481 11.51786,-28.0369 11.59363,-11.44208 28.41577,-11.44208 16.44326,0 27.58224,11.21476 11.21476,11.13898 11.21476,27.50646 0,1.66706 -0.3031,5.30428 z"
         style="font-size:155.188px;font-family:'Bauhaus 93';stroke:#000000;stroke-width:3.47293"
         id="path42" />
      <path
         d="m 575.07093,685.38418 v 30.31016 q -2.95524,-1.66706 -5.38005,-1.66706 -7.72909,0 -7.72909,11.82096 V 761.69 h -28.34 v -41.29759 q 0,-16.36748 8.9415,-26.06673 8.94149,-9.77503 23.86925,-9.77503 3.33411,0 8.63839,0.83353 z"
         style="font-size:155.188px;font-family:'Bauhaus 93';stroke:#000000;stroke-width:3.47293"
         id="path44" />
    </g>
    <g
       aria-label="ame"
       id="text18"
       style="font-size:155.188px;font-family:'Bauhaus 93';fill:#ff6b2a;stroke:#ff6b2a;stroke-width:3.12563">
      <path
         d="m 658.4571,468.39001 v 29.32508 q -3.48567,0.6062 -6.36513,0.6062 -17.04946,0 -28.41577,-11.21475 -11.36631,-11.21476 -11.36631,-28.11267 0,-16.44326 11.44208,-27.88535 11.51786,-11.44208 27.96112,-11.44208 18.33765,0 28.87043,10.7601 10.60855,10.68433 10.60855,29.2493 v 37.05417 h -28.33999 v -35.00823 q 0,-5.98626 -2.95524,-9.5477 -2.87947,-3.56144 -7.80487,-3.56144 -4.47075,0 -7.72909,3.25834 -3.25834,3.25834 -3.25834,7.72909 0,4.69807 2.95524,7.72909 2.95524,3.03101 7.50176,3.03101 3.713,0 6.89556,-1.97016 z"
         style="font-size:155.188px;font-family:'Bauhaus 93';fill:#ff6b2a;stroke:#ff6b2a;stroke-width:3.12563"
         id="path47" />
      <path
         d="m 811.37185,496.73001 h -28.34 v -40.76716 q 0,-4.69807 -0.98508,-6.51668 -0.98508,-1.81861 -3.56144,-1.81861 -4.77385,0 -4.77385,8.41107 v 40.69138 h -28.34 v -40.76716 q 0,-4.69807 -1.06086,-6.51668 -0.98508,-1.81861 -3.56144,-1.81861 -4.69807,0 -4.69807,8.41107 v 40.69138 h -28.34 v -46.52609 q 0,-12.73027 8.56262,-21.59599 8.56262,-8.94149 20.76246,-8.94149 12.57871,0 22.58106,10.60855 11.13899,-10.60855 22.27797,-10.60855 14.17,0 22.73262,10.30545 6.74401,8.03219 6.74401,23.4146 z"
         style="font-size:155.188px;font-family:'Bauhaus 93';fill:#ff6b2a;stroke:#ff6b2a;stroke-width:3.12563"
         id="path49" />
      <path
         d="m 902.22654,463.54039 h -42.96465 q -0.98508,-3.25834 -0.98508,-5.98626 0,-3.78877 1.36396,-7.42599 h 14.39732 q -1.5155,-8.41106 -9.47192,-8.41106 -5.30428,0 -8.63839,4.54652 -3.33412,4.47075 -3.33412,11.51786 0,7.35021 3.18256,11.89674 3.25835,4.54652 8.48685,4.54652 4.24342,0 8.18374,-4.24342 l 16.14016,19.3985 q -11.29053,8.86572 -25.08166,8.86572 -16.82213,0 -28.26422,-11.29053 -11.44208,-11.29054 -11.44208,-27.96112 0,-16.59482 11.51786,-28.0369 11.59363,-11.44208 28.41577,-11.44208 16.44326,0 27.58224,11.21475 11.21476,11.13899 11.21476,27.50647 0,1.66706 -0.3031,5.30428 z"
         style="font-size:155.188px;font-family:'Bauhaus 93';fill:#ff6b2a;stroke:#ff6b2a;stroke-width:3.12563"
         id="path51" />
    </g>
    <g
       aria-label="2031"
       id="text20"
       style="font-size:237.29px;font-family:'Bauhaus 93';text-align:center;text-anchor:middle;stroke:#000000;stroke-width:6.946">
      <path
         d="m 353.66345,920.3646 v 45.76638 H 251.47117 l 50.74855,-95.24042 1.73796,-3.24419 q 2.08556,-3.82353 2.08556,-7.53118 0,-9.38501 -11.00711,-9.38501 -4.28697,0 -7.53117,3.2442 -3.12834,3.12834 -3.12834,7.41532 0,4.86629 4.17112,8.80568 l -20.27625,36.14965 q -12.74507,-7.87877 -19.58106,-20.04452 -6.83599,-12.16575 -6.83599,-26.88051 0,-22.82526 16.10513,-39.04625 16.10513,-16.33686 38.93039,-16.33686 22.94112,0 38.93039,16.10513 16.10513,16.10513 16.10513,39.16212 0,13.20852 -5.90907,24.56322 L 327.2464,920.3646 Z"
         style="font-size:237.29px;font-family:'Bauhaus 93';text-align:center;text-anchor:middle;stroke:#000000;stroke-width:6.946"
         id="path54" />
      <path
         d="m 376.14112,904.37533 v -34.75927 q 0,-30.35644 15.06235,-47.9678 15.17822,-17.61137 41.24767,-17.61137 26.06946,0 41.24768,17.61137 15.17822,17.61136 15.17822,47.9678 v 34.75927 q 0,30.35644 -15.17822,48.08367 -15.17822,17.61137 -41.24768,17.61137 -26.06945,0 -41.24767,-17.61137 -15.06235,-17.72723 -15.06235,-48.08367 z m 45.07119,-44.02841 v 53.29755 q 0,14.48304 11.23883,14.48304 11.3547,0 11.3547,-14.48304 v -53.29755 q 0,-14.48303 -11.3547,-14.48303 -11.23883,0 -11.23883,14.48303 z"
         style="font-size:237.29px;font-family:'Bauhaus 93';text-align:center;text-anchor:middle;stroke:#000000;stroke-width:6.946"
         id="path56" />
      <path
         d="M 525.49015,807.97627 H 609.26 l -25.83773,60.82874 q 13.90371,9.385 20.16038,20.62383 6.37254,11.12297 6.37254,26.41705 0,22.82526 -16.80032,38.5828 -16.80032,15.64168 -41.36354,15.64168 -13.55612,0 -26.88051,-5.09803 v -44.7236 q 10.08019,6.25667 17.49551,6.25667 8.1105,0 13.55612,-5.79322 5.56148,-5.79321 5.56148,-14.36716 0,-9.84847 -8.22636,-15.64168 -8.22636,-5.90908 -22.01421,-5.90908 l 11.70229,-31.16748 h -17.4955 z"
         style="font-size:237.29px;font-family:'Bauhaus 93';text-align:center;text-anchor:middle;stroke:#000000;stroke-width:6.946"
         id="path58" />
      <path
         d="M 724.77667,807.97627 V 966.13098 H 679.9372 V 807.97627 Z"
         style="font-size:237.29px;font-family:'Bauhaus 93';text-align:center;text-anchor:middle;stroke:#000000;stroke-width:6.946"
         id="path60" />
    </g>
  </g>
</svg>
